<?xml version="1.0" encoding="UTF-8"?>
<svg xmlns="http://www.w3.org/2000/svg" xmlns:xlink="http://www.w3.org/1999/xlink" width="2000" height="2000" viewBox="0 0 2000 2000">
<defs>
<clipPath id="clip-0">
<path clip-rule="nonzero" d="M 1195 732 L 1621 732 L 1621 1268 L 1195 1268 Z M 1195 732 "/>
</clipPath>
<clipPath id="clip-1">
<path clip-rule="nonzero" d="M 1582.289062 1028.839844 C 1582.289062 1033.808594 1582.101562 1038.75 1581.75 1043.671875 C 1559.671875 1065.398438 1534.070312 1083.199219 1506.398438 1096.121094 C 1509.300781 1091.039062 1511.828125 1085.710938 1513.988281 1080.171875 C 1516.449219 1073.871094 1518.171875 1068.019531 1519.371094 1062.890625 C 1529.679688 1023.921875 1541.890625 983.078125 1556.371094 940.730469 C 1564.761719 916.179688 1573.441406 892.53125 1582.289062 869.808594 Z M 1566.199219 1108.449219 C 1555.898438 1132.808594 1541.160156 1154.671875 1522.390625 1173.441406 C 1503.609375 1192.21875 1481.75 1206.960938 1457.390625 1217.261719 L 1456.761719 1217.53125 C 1441.078125 1224.101562 1424.488281 1228.089844 1407.710938 1229.53125 C 1390.929688 1228.089844 1374.339844 1224.101562 1358.660156 1217.53125 L 1358.03125 1217.261719 C 1333.671875 1206.960938 1311.800781 1192.21875 1293.03125 1173.441406 C 1274.261719 1154.671875 1259.519531 1132.808594 1249.210938 1108.449219 C 1248.589844 1106.96875 1247.988281 1105.488281 1247.398438 1104 C 1269.851562 1119.660156 1294.25 1132.289062 1319.839844 1141.328125 C 1343.660156 1149.761719 1368.351562 1155.121094 1393.539062 1157.398438 C 1398.25 1157.820312 1402.96875 1158.148438 1407.710938 1158.351562 C 1412.449219 1158.148438 1417.171875 1157.820312 1421.871094 1157.398438 C 1447.058594 1155.121094 1471.75 1149.761719 1495.570312 1141.328125 C 1521.160156 1132.289062 1545.570312 1119.660156 1568.019531 1104 C 1567.429688 1105.488281 1566.828125 1106.96875 1566.199219 1108.449219 Z M 1233.128906 1028.839844 L 1233.128906 869.808594 C 1241.980469 892.53125 1250.660156 916.179688 1259.050781 940.730469 C 1273.53125 983.078125 1285.730469 1023.921875 1296.050781 1062.890625 C 1297.25 1068.019531 1298.96875 1073.871094 1301.429688 1080.171875 C 1303.589844 1085.710938 1306.121094 1091.039062 1309.011719 1096.121094 C 1281.339844 1083.199219 1255.738281 1065.398438 1233.660156 1043.671875 C 1233.308594 1038.75 1233.128906 1033.808594 1233.128906 1028.839844 Z M 1278.011719 803 C 1286.890625 815.648438 1292.109375 831.050781 1292.109375 847.640625 L 1292.109375 928.878906 C 1284.371094 901.519531 1275.769531 873.308594 1266.210938 844.339844 C 1258.308594 820.359375 1250.179688 797.199219 1241.921875 774.871094 C 1248.351562 777.320312 1265.199219 784.761719 1278.011719 803 Z M 1523.308594 847.640625 C 1523.308594 831.050781 1528.53125 815.648438 1537.410156 803 C 1550.21875 784.761719 1567.058594 777.320312 1573.488281 774.871094 C 1565.238281 797.199219 1557.109375 820.359375 1549.199219 844.339844 C 1539.648438 873.308594 1531.050781 901.519531 1523.308594 928.878906 Z M 1601.171875 732 C 1537.410156 732 1485.53125 783.878906 1485.53125 847.640625 L 1485.53125 1028.839844 C 1485.53125 1030.890625 1485.46875 1032.960938 1485.359375 1034.988281 C 1482.390625 1087.859375 1446.191406 1114.699219 1407.710938 1119.929688 C 1369.21875 1114.699219 1333.03125 1087.859375 1330.058594 1034.988281 C 1329.941406 1032.960938 1329.878906 1030.890625 1329.878906 1028.839844 L 1329.878906 847.640625 C 1329.878906 783.878906 1278.011719 732 1214.238281 732 L 1195.359375 732 L 1195.359375 1028.839844 C 1195.359375 1061.511719 1201.769531 1093.25 1214.421875 1123.160156 C 1226.628906 1152.019531 1244.089844 1177.929688 1266.320312 1200.160156 C 1288.550781 1222.378906 1314.449219 1239.839844 1343.308594 1252.050781 L 1344.050781 1252.359375 C 1360.019531 1259.050781 1376.578125 1263.609375 1393.539062 1266 C 1398.238281 1266.671875 1402.960938 1267.171875 1407.710938 1267.5 C 1412.460938 1267.171875 1417.179688 1266.671875 1421.871094 1266 C 1438.828125 1263.609375 1455.398438 1259.050781 1471.371094 1252.359375 L 1472.101562 1252.050781 C 1500.96875 1239.839844 1526.871094 1222.378906 1549.101562 1200.160156 C 1571.328125 1177.929688 1588.789062 1152.019531 1600.988281 1123.160156 C 1613.648438 1093.25 1620.058594 1061.511719 1620.058594 1028.839844 L 1620.058594 732 Z M 1601.171875 732 "/>
</clipPath>
<clipPath id="clip-2">
<path clip-rule="nonzero" d="M 1582.289062 1028.839844 C 1582.289062 1033.808594 1582.101562 1038.75 1581.75 1043.671875 C 1559.671875 1065.398438 1534.070312 1083.199219 1506.398438 1096.121094 C 1509.300781 1091.039062 1511.828125 1085.710938 1513.988281 1080.171875 C 1516.449219 1073.871094 1518.171875 1068.019531 1519.371094 1062.890625 C 1529.679688 1023.921875 1541.890625 983.078125 1556.371094 940.730469 C 1564.761719 916.179688 1573.441406 892.53125 1582.289062 869.808594 Z M 1566.199219 1108.449219 C 1555.898438 1132.808594 1541.160156 1154.671875 1522.390625 1173.441406 C 1503.609375 1192.21875 1481.75 1206.960938 1457.390625 1217.261719 L 1456.761719 1217.53125 C 1441.078125 1224.101562 1424.488281 1228.089844 1407.710938 1229.53125 C 1390.929688 1228.089844 1374.339844 1224.101562 1358.660156 1217.53125 L 1358.03125 1217.261719 C 1333.671875 1206.960938 1311.800781 1192.21875 1293.03125 1173.441406 C 1274.261719 1154.671875 1259.519531 1132.808594 1249.210938 1108.449219 C 1248.589844 1106.96875 1247.988281 1105.488281 1247.398438 1104 C 1269.851562 1119.660156 1294.25 1132.289062 1319.839844 1141.328125 C 1343.660156 1149.761719 1368.351562 1155.121094 1393.539062 1157.398438 C 1398.25 1157.820312 1402.96875 1158.148438 1407.710938 1158.351562 C 1412.449219 1158.148438 1417.171875 1157.820312 1421.871094 1157.398438 C 1447.058594 1155.121094 1471.75 1149.761719 1495.570312 1141.328125 C 1521.160156 1132.289062 1545.570312 1119.660156 1568.019531 1104 C 1567.429688 1105.488281 1566.828125 1106.96875 1566.199219 1108.449219 Z M 1233.128906 1028.839844 L 1233.128906 869.808594 C 1241.980469 892.53125 1250.660156 916.179688 1259.050781 940.730469 C 1273.53125 983.078125 1285.730469 1023.921875 1296.050781 1062.890625 C 1297.25 1068.019531 1298.96875 1073.871094 1301.429688 1080.171875 C 1303.589844 1085.710938 1306.121094 1091.039062 1309.011719 1096.121094 C 1281.339844 1083.199219 1255.738281 1065.398438 1233.660156 1043.671875 C 1233.308594 1038.75 1233.128906 1033.808594 1233.128906 1028.839844 Z M 1278.011719 803 C 1286.890625 815.648438 1292.109375 831.050781 1292.109375 847.640625 L 1292.109375 928.878906 C 1284.371094 901.519531 1275.769531 873.308594 1266.210938 844.339844 C 1258.308594 820.359375 1250.179688 797.199219 1241.921875 774.871094 C 1248.351562 777.320312 1265.199219 784.761719 1278.011719 803 Z M 1523.308594 847.640625 C 1523.308594 831.050781 1528.53125 815.648438 1537.410156 803 C 1550.21875 784.761719 1567.058594 777.320312 1573.488281 774.871094 C 1565.238281 797.199219 1557.109375 820.359375 1549.199219 844.339844 C 1539.648438 873.308594 1531.050781 901.519531 1523.308594 928.878906 Z M 1601.171875 732 C 1537.410156 732 1485.53125 783.878906 1485.53125 847.640625 L 1485.53125 1028.839844 C 1485.53125 1030.890625 1485.46875 1032.960938 1485.359375 1034.988281 C 1482.390625 1087.859375 1446.191406 1114.699219 1407.710938 1119.929688 C 1369.21875 1114.699219 1333.03125 1087.859375 1330.058594 1034.988281 C 1329.941406 1032.960938 1329.878906 1030.890625 1329.878906 1028.839844 L 1329.878906 847.640625 C 1329.878906 783.878906 1278.011719 732 1214.238281 732 L 1195.359375 732 L 1195.359375 1028.839844 C 1195.359375 1061.511719 1201.769531 1093.25 1214.421875 1123.160156 C 1226.628906 1152.019531 1244.089844 1177.929688 1266.320312 1200.160156 C 1288.550781 1222.378906 1314.449219 1239.839844 1343.308594 1252.050781 L 1344.050781 1252.359375 C 1360.019531 1259.050781 1376.578125 1263.609375 1393.539062 1266 C 1398.238281 1266.671875 1402.960938 1267.171875 1407.710938 1267.5 C 1412.460938 1267.171875 1417.179688 1266.671875 1421.871094 1266 C 1438.828125 1263.609375 1455.398438 1259.050781 1471.371094 1252.359375 L 1472.101562 1252.050781 C 1500.96875 1239.839844 1526.871094 1222.378906 1549.101562 1200.160156 C 1571.328125 1177.929688 1588.789062 1152.019531 1600.988281 1123.160156 C 1613.648438 1093.25 1620.058594 1061.511719 1620.058594 1028.839844 L 1620.058594 732 L 1601.171875 732 "/>
</clipPath>
<linearGradient id="linear-pattern-0" gradientUnits="userSpaceOnUse" x1="0" y1="0" x2="0.999991" y2="0" gradientTransform="matrix(424.704, 0, 0, 424.704, 1195.36, 999.75)">
<stop offset="0" stop-color="rgb(22.108459%, 44.499207%, 75.782776%)" stop-opacity="1"/>
<stop offset="0.00390625" stop-color="rgb(22.061157%, 44.306946%, 75.627136%)" stop-opacity="1"/>
<stop offset="0.0078125" stop-color="rgb(22.013855%, 44.114685%, 75.468445%)" stop-opacity="1"/>
<stop offset="0.0117188" stop-color="rgb(21.968079%, 43.920898%, 75.309753%)" stop-opacity="1"/>
<stop offset="0.015625" stop-color="rgb(21.920776%, 43.728638%, 75.152588%)" stop-opacity="1"/>
<stop offset="0.0195313" stop-color="rgb(21.875%, 43.536377%, 74.993896%)" stop-opacity="1"/>
<stop offset="0.0234375" stop-color="rgb(21.827698%, 43.345642%, 74.836731%)" stop-opacity="1"/>
<stop offset="0.0273437" stop-color="rgb(21.783447%, 43.154907%, 74.679565%)" stop-opacity="1"/>
<stop offset="0.03125" stop-color="rgb(21.737671%, 42.962646%, 74.5224%)" stop-opacity="1"/>
<stop offset="0.0351562" stop-color="rgb(21.691895%, 42.773438%, 74.365234%)" stop-opacity="1"/>
<stop offset="0.0390625" stop-color="rgb(21.646118%, 42.582703%, 74.208069%)" stop-opacity="1"/>
<stop offset="0.0429688" stop-color="rgb(21.600342%, 42.393494%, 74.052429%)" stop-opacity="1"/>
<stop offset="0.046875" stop-color="rgb(21.554565%, 42.204285%, 73.895264%)" stop-opacity="1"/>
<stop offset="0.0507812" stop-color="rgb(21.511841%, 42.015076%, 73.739624%)" stop-opacity="1"/>
<stop offset="0.0546875" stop-color="rgb(21.466064%, 41.825867%, 73.583984%)" stop-opacity="1"/>
<stop offset="0.0585938" stop-color="rgb(21.421814%, 41.638184%, 73.428345%)" stop-opacity="1"/>
<stop offset="0.0625" stop-color="rgb(21.377563%, 41.4505%, 73.272705%)" stop-opacity="1"/>
<stop offset="0.0664063" stop-color="rgb(21.334839%, 41.262817%, 73.117065%)" stop-opacity="1"/>
<stop offset="0.0703125" stop-color="rgb(21.290588%, 41.07666%, 72.962952%)" stop-opacity="1"/>
<stop offset="0.0742188" stop-color="rgb(21.246338%, 40.890503%, 72.807312%)" stop-opacity="1"/>
<stop offset="0.078125" stop-color="rgb(21.203613%, 40.704346%, 72.653198%)" stop-opacity="1"/>
<stop offset="0.0820312" stop-color="rgb(21.159363%, 40.518188%, 72.499084%)" stop-opacity="1"/>
<stop offset="0.0859375" stop-color="rgb(21.116638%, 40.332031%, 72.344971%)" stop-opacity="1"/>
<stop offset="0.0898438" stop-color="rgb(21.073914%, 40.1474%, 72.190857%)" stop-opacity="1"/>
<stop offset="0.09375" stop-color="rgb(21.031189%, 39.962769%, 72.036743%)" stop-opacity="1"/>
<stop offset="0.0976562" stop-color="rgb(20.988464%, 39.779663%, 71.882629%)" stop-opacity="1"/>
<stop offset="0.101562" stop-color="rgb(20.94574%, 39.595032%, 71.730042%)" stop-opacity="1"/>
<stop offset="0.105469" stop-color="rgb(20.904541%, 39.411926%, 71.575928%)" stop-opacity="1"/>
<stop offset="0.109375" stop-color="rgb(20.863342%, 39.228821%, 71.42334%)" stop-opacity="1"/>
<stop offset="0.113281" stop-color="rgb(20.820618%, 39.045715%, 71.270752%)" stop-opacity="1"/>
<stop offset="0.117188" stop-color="rgb(20.779419%, 38.864136%, 71.118164%)" stop-opacity="1"/>
<stop offset="0.121094" stop-color="rgb(20.73822%, 38.682556%, 70.965576%)" stop-opacity="1"/>
<stop offset="0.125" stop-color="rgb(20.697021%, 38.500977%, 70.814514%)" stop-opacity="1"/>
<stop offset="0.128906" stop-color="rgb(20.657349%, 38.319397%, 70.661926%)" stop-opacity="1"/>
<stop offset="0.132813" stop-color="rgb(20.61615%, 38.139343%, 70.510864%)" stop-opacity="1"/>
<stop offset="0.136719" stop-color="rgb(20.574951%, 37.95929%, 70.358276%)" stop-opacity="1"/>
<stop offset="0.140625" stop-color="rgb(20.535278%, 37.779236%, 70.207214%)" stop-opacity="1"/>
<stop offset="0.144531" stop-color="rgb(20.495605%, 37.599182%, 70.056152%)" stop-opacity="1"/>
<stop offset="0.148438" stop-color="rgb(20.455933%, 37.420654%, 69.90509%)" stop-opacity="1"/>
<stop offset="0.152344" stop-color="rgb(20.41626%, 37.242126%, 69.754028%)" stop-opacity="1"/>
<stop offset="0.15625" stop-color="rgb(20.376587%, 37.063599%, 69.604492%)" stop-opacity="1"/>
<stop offset="0.160156" stop-color="rgb(20.336914%, 36.885071%, 69.45343%)" stop-opacity="1"/>
<stop offset="0.164062" stop-color="rgb(20.297241%, 36.708069%, 69.303894%)" stop-opacity="1"/>
<stop offset="0.167969" stop-color="rgb(20.259094%, 36.531067%, 69.154358%)" stop-opacity="1"/>
<stop offset="0.171875" stop-color="rgb(20.219421%, 36.354065%, 69.004822%)" stop-opacity="1"/>
<stop offset="0.175781" stop-color="rgb(20.181274%, 36.177063%, 68.855286%)" stop-opacity="1"/>
<stop offset="0.179688" stop-color="rgb(20.143127%, 36.001587%, 68.70575%)" stop-opacity="1"/>
<stop offset="0.183594" stop-color="rgb(20.10498%, 35.826111%, 68.556213%)" stop-opacity="1"/>
<stop offset="0.1875" stop-color="rgb(20.066833%, 35.650635%, 68.408203%)" stop-opacity="1"/>
<stop offset="0.191406" stop-color="rgb(20.030212%, 35.476685%, 68.258667%)" stop-opacity="1"/>
<stop offset="0.195312" stop-color="rgb(19.992065%, 35.301208%, 68.110657%)" stop-opacity="1"/>
<stop offset="0.199219" stop-color="rgb(19.953918%, 35.127258%, 67.962646%)" stop-opacity="1"/>
<stop offset="0.203125" stop-color="rgb(19.917297%, 34.953308%, 67.814636%)" stop-opacity="1"/>
<stop offset="0.207031" stop-color="rgb(19.880676%, 34.780884%, 67.666626%)" stop-opacity="1"/>
<stop offset="0.210938" stop-color="rgb(19.844055%, 34.608459%, 67.518616%)" stop-opacity="1"/>
<stop offset="0.214844" stop-color="rgb(19.807434%, 34.436035%, 67.370605%)" stop-opacity="1"/>
<stop offset="0.21875" stop-color="rgb(19.770813%, 34.263611%, 67.224121%)" stop-opacity="1"/>
<stop offset="0.222656" stop-color="rgb(19.735718%, 34.091187%, 67.076111%)" stop-opacity="1"/>
<stop offset="0.226562" stop-color="rgb(19.699097%, 33.920288%, 66.929626%)" stop-opacity="1"/>
<stop offset="0.230469" stop-color="rgb(19.662476%, 33.74939%, 66.783142%)" stop-opacity="1"/>
<stop offset="0.234375" stop-color="rgb(19.62738%, 33.578491%, 66.636658%)" stop-opacity="1"/>
<stop offset="0.238281" stop-color="rgb(19.592285%, 33.409119%, 66.490173%)" stop-opacity="1"/>
<stop offset="0.242187" stop-color="rgb(19.555664%, 33.23822%, 66.343689%)" stop-opacity="1"/>
<stop offset="0.246094" stop-color="rgb(19.522095%, 33.068848%, 66.19873%)" stop-opacity="1"/>
<stop offset="0.25" stop-color="rgb(19.487%, 32.901001%, 66.052246%)" stop-opacity="1"/>
<stop offset="0.253906" stop-color="rgb(19.451904%, 32.731628%, 65.907288%)" stop-opacity="1"/>
<stop offset="0.257812" stop-color="rgb(19.418335%, 32.563782%, 65.760803%)" stop-opacity="1"/>
<stop offset="0.261719" stop-color="rgb(19.384766%, 32.395935%, 65.615845%)" stop-opacity="1"/>
<stop offset="0.265625" stop-color="rgb(19.34967%, 32.228088%, 65.470886%)" stop-opacity="1"/>
<stop offset="0.269531" stop-color="rgb(19.316101%, 32.061768%, 65.325928%)" stop-opacity="1"/>
<stop offset="0.273438" stop-color="rgb(19.282532%, 31.893921%, 65.182495%)" stop-opacity="1"/>
<stop offset="0.277344" stop-color="rgb(19.248962%, 31.7276%, 65.037537%)" stop-opacity="1"/>
<stop offset="0.28125" stop-color="rgb(19.215393%, 31.562805%, 64.892578%)" stop-opacity="1"/>
<stop offset="0.285156" stop-color="rgb(19.18335%, 31.396484%, 64.749146%)" stop-opacity="1"/>
<stop offset="0.289063" stop-color="rgb(19.14978%, 31.231689%, 64.605713%)" stop-opacity="1"/>
<stop offset="0.292969" stop-color="rgb(19.117737%, 31.066895%, 64.46228%)" stop-opacity="1"/>
<stop offset="0.296875" stop-color="rgb(19.084167%, 30.9021%, 64.318848%)" stop-opacity="1"/>
<stop offset="0.300781" stop-color="rgb(19.05365%, 30.738831%, 64.175415%)" stop-opacity="1"/>
<stop offset="0.304688" stop-color="rgb(19.021606%, 30.575562%, 64.031982%)" stop-opacity="1"/>
<stop offset="0.308594" stop-color="rgb(18.989563%, 30.412292%, 63.88855%)" stop-opacity="1"/>
<stop offset="0.3125" stop-color="rgb(18.95752%, 30.249023%, 63.746643%)" stop-opacity="1"/>
<stop offset="0.316406" stop-color="rgb(18.925476%, 30.085754%, 63.60321%)" stop-opacity="1"/>
<stop offset="0.320312" stop-color="rgb(18.893433%, 29.924011%, 63.461304%)" stop-opacity="1"/>
<stop offset="0.324219" stop-color="rgb(18.864441%, 29.762268%, 63.319397%)" stop-opacity="1"/>
<stop offset="0.328125" stop-color="rgb(18.832397%, 29.600525%, 63.17749%)" stop-opacity="1"/>
<stop offset="0.332031" stop-color="rgb(18.80188%, 29.440308%, 63.035583%)" stop-opacity="1"/>
<stop offset="0.335938" stop-color="rgb(18.771362%, 29.28009%, 62.893677%)" stop-opacity="1"/>
<stop offset="0.339844" stop-color="rgb(18.742371%, 29.119873%, 62.75177%)" stop-opacity="1"/>
<stop offset="0.34375" stop-color="rgb(18.711853%, 28.959656%, 62.611389%)" stop-opacity="1"/>
<stop offset="0.347656" stop-color="rgb(18.681335%, 28.800964%, 62.469482%)" stop-opacity="1"/>
<stop offset="0.351562" stop-color="rgb(18.652344%, 28.640747%, 62.329102%)" stop-opacity="1"/>
<stop offset="0.355469" stop-color="rgb(18.621826%, 28.482056%, 62.188721%)" stop-opacity="1"/>
<stop offset="0.359375" stop-color="rgb(18.592834%, 28.32489%, 62.04834%)" stop-opacity="1"/>
<stop offset="0.363281" stop-color="rgb(18.563843%, 28.166199%, 61.907959%)" stop-opacity="1"/>
<stop offset="0.367188" stop-color="rgb(18.534851%, 28.009033%, 61.767578%)" stop-opacity="1"/>
<stop offset="0.371094" stop-color="rgb(18.505859%, 27.851868%, 61.627197%)" stop-opacity="1"/>
<stop offset="0.375" stop-color="rgb(18.478394%, 27.694702%, 61.488342%)" stop-opacity="1"/>
<stop offset="0.378906" stop-color="rgb(18.450928%, 27.539062%, 61.347961%)" stop-opacity="1"/>
<stop offset="0.382812" stop-color="rgb(18.421936%, 27.381897%, 61.209106%)" stop-opacity="1"/>
<stop offset="0.386719" stop-color="rgb(18.39447%, 27.226257%, 61.070251%)" stop-opacity="1"/>
<stop offset="0.390625" stop-color="rgb(18.365479%, 27.072144%, 60.929871%)" stop-opacity="1"/>
<stop offset="0.394531" stop-color="rgb(18.338013%, 26.916504%, 60.791016%)" stop-opacity="1"/>
<stop offset="0.398438" stop-color="rgb(18.310547%, 26.76239%, 60.653687%)" stop-opacity="1"/>
<stop offset="0.402344" stop-color="rgb(18.284607%, 26.608276%, 60.514832%)" stop-opacity="1"/>
<stop offset="0.40625" stop-color="rgb(18.257141%, 26.454163%, 60.375977%)" stop-opacity="1"/>
<stop offset="0.410156" stop-color="rgb(18.231201%, 26.301575%, 60.238647%)" stop-opacity="1"/>
<stop offset="0.414062" stop-color="rgb(18.203735%, 26.148987%, 60.099792%)" stop-opacity="1"/>
<stop offset="0.417969" stop-color="rgb(18.177795%, 25.994873%, 59.962463%)" stop-opacity="1"/>
<stop offset="0.421875" stop-color="rgb(18.151855%, 25.843811%, 59.825134%)" stop-opacity="1"/>
<stop offset="0.425781" stop-color="rgb(18.125916%, 25.691223%, 59.686279%)" stop-opacity="1"/>
<stop offset="0.429688" stop-color="rgb(18.099976%, 25.540161%, 59.54895%)" stop-opacity="1"/>
<stop offset="0.433594" stop-color="rgb(18.074036%, 25.389099%, 59.413147%)" stop-opacity="1"/>
<stop offset="0.4375" stop-color="rgb(18.048096%, 25.238037%, 59.275818%)" stop-opacity="1"/>
<stop offset="0.441406" stop-color="rgb(18.025208%, 25.088501%, 59.138489%)" stop-opacity="1"/>
<stop offset="0.445312" stop-color="rgb(17.999268%, 24.937439%, 59.002686%)" stop-opacity="1"/>
<stop offset="0.449219" stop-color="rgb(17.974854%, 24.787903%, 58.865356%)" stop-opacity="1"/>
<stop offset="0.453125" stop-color="rgb(17.950439%, 24.639893%, 58.729553%)" stop-opacity="1"/>
<stop offset="0.457031" stop-color="rgb(17.926025%, 24.490356%, 58.59375%)" stop-opacity="1"/>
<stop offset="0.460937" stop-color="rgb(17.901611%, 24.342346%, 58.457947%)" stop-opacity="1"/>
<stop offset="0.464844" stop-color="rgb(17.877197%, 24.194336%, 58.322144%)" stop-opacity="1"/>
<stop offset="0.46875" stop-color="rgb(17.854309%, 24.046326%, 58.18634%)" stop-opacity="1"/>
<stop offset="0.472656" stop-color="rgb(17.829895%, 23.899841%, 58.050537%)" stop-opacity="1"/>
<stop offset="0.476562" stop-color="rgb(17.807007%, 23.751831%, 57.914734%)" stop-opacity="1"/>
<stop offset="0.480469" stop-color="rgb(17.784119%, 23.605347%, 57.780457%)" stop-opacity="1"/>
<stop offset="0.484375" stop-color="rgb(17.76123%, 23.458862%, 57.644653%)" stop-opacity="1"/>
<stop offset="0.488281" stop-color="rgb(17.738342%, 23.313904%, 57.510376%)" stop-opacity="1"/>
<stop offset="0.492188" stop-color="rgb(17.715454%, 23.168945%, 57.376099%)" stop-opacity="1"/>
<stop offset="0.496094" stop-color="rgb(17.694092%, 23.022461%, 57.241821%)" stop-opacity="1"/>
<stop offset="0.5" stop-color="rgb(17.671204%, 22.879028%, 57.107544%)" stop-opacity="1"/>
<stop offset="0.507813" stop-color="rgb(17.645264%, 22.808838%, 56.929016%)" stop-opacity="1"/>
<stop offset="0.515625" stop-color="rgb(17.593384%, 22.671509%, 56.573486%)" stop-opacity="1"/>
<stop offset="0.523438" stop-color="rgb(17.541504%, 22.532654%, 56.217957%)" stop-opacity="1"/>
<stop offset="0.53125" stop-color="rgb(17.489624%, 22.395325%, 55.863953%)" stop-opacity="1"/>
<stop offset="0.539062" stop-color="rgb(17.437744%, 22.257996%, 55.511475%)" stop-opacity="1"/>
<stop offset="0.546875" stop-color="rgb(17.384338%, 22.122192%, 55.160522%)" stop-opacity="1"/>
<stop offset="0.554688" stop-color="rgb(17.332458%, 21.986389%, 54.80957%)" stop-opacity="1"/>
<stop offset="0.5625" stop-color="rgb(17.279053%, 21.84906%, 54.460144%)" stop-opacity="1"/>
<stop offset="0.570312" stop-color="rgb(17.227173%, 21.714783%, 54.112244%)" stop-opacity="1"/>
<stop offset="0.578125" stop-color="rgb(17.173767%, 21.578979%, 53.765869%)" stop-opacity="1"/>
<stop offset="0.585938" stop-color="rgb(17.121887%, 21.444702%, 53.419495%)" stop-opacity="1"/>
<stop offset="0.59375" stop-color="rgb(17.068481%, 21.310425%, 53.074646%)" stop-opacity="1"/>
<stop offset="0.601563" stop-color="rgb(17.015076%, 21.176147%, 52.731323%)" stop-opacity="1"/>
<stop offset="0.609375" stop-color="rgb(16.96167%, 21.04187%, 52.389526%)" stop-opacity="1"/>
<stop offset="0.617188" stop-color="rgb(16.908264%, 20.909119%, 52.047729%)" stop-opacity="1"/>
<stop offset="0.625" stop-color="rgb(16.854858%, 20.776367%, 51.707458%)" stop-opacity="1"/>
<stop offset="0.632812" stop-color="rgb(16.801453%, 20.643616%, 51.368713%)" stop-opacity="1"/>
<stop offset="0.640625" stop-color="rgb(16.748047%, 20.51239%, 51.031494%)" stop-opacity="1"/>
<stop offset="0.648438" stop-color="rgb(16.694641%, 20.381165%, 50.694275%)" stop-opacity="1"/>
<stop offset="0.65625" stop-color="rgb(16.639709%, 20.249939%, 50.358582%)" stop-opacity="1"/>
<stop offset="0.664062" stop-color="rgb(16.586304%, 20.118713%, 50.024414%)" stop-opacity="1"/>
<stop offset="0.671875" stop-color="rgb(16.531372%, 19.987488%, 49.690247%)" stop-opacity="1"/>
<stop offset="0.679688" stop-color="rgb(16.477966%, 19.857788%, 49.357605%)" stop-opacity="1"/>
<stop offset="0.6875" stop-color="rgb(16.423035%, 19.728088%, 49.026489%)" stop-opacity="1"/>
<stop offset="0.695312" stop-color="rgb(16.368103%, 19.598389%, 48.696899%)" stop-opacity="1"/>
<stop offset="0.703125" stop-color="rgb(16.314697%, 19.470215%, 48.368835%)" stop-opacity="1"/>
<stop offset="0.710938" stop-color="rgb(16.259766%, 19.340515%, 48.040771%)" stop-opacity="1"/>
<stop offset="0.71875" stop-color="rgb(16.204834%, 19.212341%, 47.714233%)" stop-opacity="1"/>
<stop offset="0.726562" stop-color="rgb(16.149902%, 19.085693%, 47.387695%)" stop-opacity="1"/>
<stop offset="0.734375" stop-color="rgb(16.094971%, 18.95752%, 47.064209%)" stop-opacity="1"/>
<stop offset="0.742188" stop-color="rgb(16.040039%, 18.830872%, 46.740723%)" stop-opacity="1"/>
<stop offset="0.75" stop-color="rgb(15.983582%, 18.704224%, 46.418762%)" stop-opacity="1"/>
<stop offset="0.757812" stop-color="rgb(15.92865%, 18.577576%, 46.096802%)" stop-opacity="1"/>
<stop offset="0.765625" stop-color="rgb(15.873718%, 18.450928%, 45.776367%)" stop-opacity="1"/>
<stop offset="0.773438" stop-color="rgb(15.817261%, 18.325806%, 45.457458%)" stop-opacity="1"/>
<stop offset="0.78125" stop-color="rgb(15.760803%, 18.200684%, 45.140076%)" stop-opacity="1"/>
<stop offset="0.789062" stop-color="rgb(15.705872%, 18.075562%, 44.824219%)" stop-opacity="1"/>
<stop offset="0.796875" stop-color="rgb(15.649414%, 17.950439%, 44.508362%)" stop-opacity="1"/>
<stop offset="0.804688" stop-color="rgb(15.592957%, 17.826843%, 44.194031%)" stop-opacity="1"/>
<stop offset="0.8125" stop-color="rgb(15.536499%, 17.703247%, 43.8797%)" stop-opacity="1"/>
<stop offset="0.820312" stop-color="rgb(15.480042%, 17.579651%, 43.56842%)" stop-opacity="1"/>
<stop offset="0.828125" stop-color="rgb(15.423584%, 17.456055%, 43.257141%)" stop-opacity="1"/>
<stop offset="0.835938" stop-color="rgb(15.367126%, 17.333984%, 42.945862%)" stop-opacity="1"/>
<stop offset="0.84375" stop-color="rgb(15.310669%, 17.211914%, 42.637634%)" stop-opacity="1"/>
<stop offset="0.851562" stop-color="rgb(15.254211%, 17.089844%, 42.329407%)" stop-opacity="1"/>
<stop offset="0.859375" stop-color="rgb(15.196228%, 16.967773%, 42.022705%)" stop-opacity="1"/>
<stop offset="0.867188" stop-color="rgb(15.139771%, 16.847229%, 41.716003%)" stop-opacity="1"/>
<stop offset="0.875" stop-color="rgb(15.081787%, 16.726685%, 41.412354%)" stop-opacity="1"/>
<stop offset="0.882812" stop-color="rgb(15.02533%, 16.60614%, 41.108704%)" stop-opacity="1"/>
<stop offset="0.890625" stop-color="rgb(14.967346%, 16.485596%, 40.80658%)" stop-opacity="1"/>
<stop offset="0.898437" stop-color="rgb(14.909363%, 16.366577%, 40.504456%)" stop-opacity="1"/>
<stop offset="0.90625" stop-color="rgb(14.851379%, 16.246033%, 40.203857%)" stop-opacity="1"/>
<stop offset="0.914062" stop-color="rgb(14.793396%, 16.127014%, 39.904785%)" stop-opacity="1"/>
<stop offset="0.921875" stop-color="rgb(14.735413%, 16.009521%, 39.607239%)" stop-opacity="1"/>
<stop offset="0.929688" stop-color="rgb(14.677429%, 15.890503%, 39.309692%)" stop-opacity="1"/>
<stop offset="0.9375" stop-color="rgb(14.619446%, 15.77301%, 39.013672%)" stop-opacity="1"/>
<stop offset="0.945312" stop-color="rgb(14.561462%, 15.655518%, 38.719177%)" stop-opacity="1"/>
<stop offset="0.953125" stop-color="rgb(14.501953%, 15.538025%, 38.424683%)" stop-opacity="1"/>
<stop offset="0.960938" stop-color="rgb(14.44397%, 15.420532%, 38.131714%)" stop-opacity="1"/>
<stop offset="0.96875" stop-color="rgb(14.38446%, 15.304565%, 37.840271%)" stop-opacity="1"/>
<stop offset="0.976562" stop-color="rgb(14.326477%, 15.188599%, 37.550354%)" stop-opacity="1"/>
<stop offset="0.984375" stop-color="rgb(14.266968%, 15.072632%, 37.260437%)" stop-opacity="1"/>
<stop offset="0.992187" stop-color="rgb(14.207458%, 14.956665%, 36.972046%)" stop-opacity="1"/>
<stop offset="1" stop-color="rgb(14.147949%, 14.842224%, 36.683655%)" stop-opacity="1"/>
</linearGradient>
</defs>
<rect x="-200" y="-200" width="2400" height="2400" fill="rgb(100%, 100%, 100%)" fill-opacity="1"/>
<path fill-rule="nonzero" fill="rgb(75.02594%, 10.394287%, 17.393494%)" fill-opacity="1" d="M 795.199219 1028.839844 C 795.199219 1056.429688 789.789062 1083.21875 779.117188 1108.449219 C 768.8125 1132.800781 754.074219 1154.671875 735.300781 1173.441406 C 716.527344 1192.21875 694.660156 1206.960938 670.308594 1217.261719 L 669.679688 1217.519531 C 629.5 1234.359375 583.414062 1234.359375 543.242188 1217.53125 L 542.609375 1217.261719 C 518.253906 1206.960938 496.386719 1192.21875 477.613281 1173.441406 C 458.84375 1154.671875 444.101562 1132.808594 433.796875 1108.449219 C 433.171875 1106.96875 432.570312 1105.488281 431.980469 1104 C 454.429688 1119.660156 478.835938 1132.289062 504.425781 1141.328125 C 536.9375 1152.828125 571.066406 1158.660156 605.878906 1158.660156 C 606.082031 1158.660156 606.289062 1158.660156 606.492188 1158.660156 C 638.746094 1158.648438 669.300781 1147.859375 692.53125 1128.28125 C 718.855469 1106.089844 733.882812 1074.570312 735.988281 1037.109375 C 736.144531 1034.371094 736.222656 1031.589844 736.222656 1028.839844 L 736.222656 847.640625 C 736.222656 811.21875 761.359375 780.550781 795.199219 772.089844 Z M 476.691406 847.640625 L 476.691406 928.878906 C 468.949219 901.519531 460.351562 873.308594 450.796875 844.339844 C 442.890625 820.359375 434.765625 797.199219 426.507812 774.871094 C 432.9375 777.320312 449.78125 784.761719 462.589844 803 C 471.472656 815.648438 476.691406 831.050781 476.691406 847.640625 Z M 417.714844 1028.839844 L 417.714844 869.808594 C 426.5625 892.53125 435.238281 916.179688 443.632812 940.730469 C 458.113281 983.078125 470.316406 1023.921875 480.632812 1062.890625 C 481.832031 1068.019531 483.550781 1073.871094 486.007812 1080.171875 C 488.171875 1085.710938 490.703125 1091.039062 493.59375 1096.121094 C 465.925781 1083.199219 440.328125 1065.398438 418.246094 1043.671875 C 417.898438 1038.75 417.714844 1033.808594 417.714844 1028.839844 Z M 814.085938 732 C 750.320312 732 698.445312 783.878906 698.445312 847.640625 L 698.445312 1028.839844 C 698.445312 1030.890625 698.386719 1032.960938 698.273438 1034.988281 C 694.9375 1094.320312 649.757812 1120.878906 606.457031 1120.878906 C 563.15625 1120.878906 517.972656 1094.320312 514.640625 1034.988281 C 514.527344 1032.960938 514.46875 1030.890625 514.46875 1028.839844 L 514.46875 847.640625 C 514.46875 783.878906 462.59375 732 398.828125 732 L 379.941406 732 L 379.941406 1028.839844 C 379.941406 1061.511719 386.355469 1093.25 399.007812 1123.160156 C 411.214844 1152.019531 428.675781 1177.929688 450.902344 1200.160156 C 473.132812 1222.378906 499.035156 1239.839844 527.898438 1252.050781 L 528.632812 1252.359375 C 553.394531 1262.738281 579.578125 1268 606.457031 1268 C 633.335938 1268 659.519531 1262.738281 684.277344 1252.359375 L 685.019531 1252.050781 C 713.878906 1239.839844 739.78125 1222.378906 762.011719 1200.160156 C 784.238281 1177.929688 801.699219 1152.019531 813.90625 1123.160156 C 826.558594 1093.25 832.972656 1061.511719 832.972656 1028.839844 L 832.972656 732 L 814.085938 732 "/>
<g clip-path="url(#clip-0)">
<g clip-path="url(#clip-1)">
<g clip-path="url(#clip-2)">
<path fill-rule="nonzero" fill="url(#linear-pattern-0)" d="M 1195.359375 732 L 1195.359375 1267.5 L 1620.058594 1267.5 L 1620.058594 732 Z M 1195.359375 732 "/>
</g>
</g>
</g>
</svg>
